# xmcd
#
# Track frame offsets:
#	182
#	52677
#	63505
#	90207
#	136312
#	155832
#	169325
#	235040
#
# Disc length: 3495 seconds
#
# Revision: 0
# Processed by: cddbd v1.5.2PL0 Copyright (c) Steve Scherf et al.
# Submitted via: dBpowerAMP V4.0
#
DISCID=5d0da508
DTITLE=Jimy Hendrix - Tax Free
DYEAR=1900
DGENRE=
TTITLE0=Spanish Castle Magic
TTITLE1=Star Spangled Banner
TTITLE2=Another Purple Haze
TTITLE3=Woodoo Chile
TTITLE4=Sunshine Of Your Love
TTITLE5=Woodoo Chile (Slight Return)
TTITLE6=Tax Free
TTITLE7=I Don't Live Today
EXTD=
EXTT0=
EXTT1=
EXTT2=
EXTT3=
EXTT4=
EXTT5=
EXTT6=
EXTT7=
PLAYORDER=
